<?xml version="1.0" encoding="utf-8"?>
<!-- Generator: Adobe Illustrator 26.0.3, SVG Export Plug-In . SVG Version: 6.00 Build 0)  -->
<svg version="1.0" id="katman_1" xmlns="http://www.w3.org/2000/svg" xmlns:xlink="http://www.w3.org/1999/xlink" x="0px" y="0px"
	 viewBox="0 0 600 450" style="enable-background:new 0 0 600 450;" xml:space="preserve">
<style type="text/css">
	.st0{fill:#1B2738;}
</style>
<g>
	<path class="st0" d="M337.5,229c0-11.1-4.7-20.8-20.7-20.8c-8.2,0-14.7,2.3-18.3,4.4l2.6,8.9c3.3-2,8.5-3.7,13.4-3.7
		c8.1,0,9.4,4.6,9.4,7.5v0.7c-17.7,0-28.9,6.1-28.9,18.5c0,7.6,5.7,14.7,15.6,14.7c6.1,0,11.2-2.4,14.2-6.3h0.3c0,0,2,8.4,13.2,5.2
		c-0.6-3.5-0.8-7.3-0.8-11.8V229z M324.3,240.6c0,0.9-0.1,1.8-0.3,2.6c-1,3.4-4.5,6.3-8.9,6.3c-3.7,0-6.6-2.1-6.6-6.5
		c0-6.7,7.4-8.5,15.8-8.5"/>
	<path class="st0" d="M66.6,193.1c0,0,11.6,47.3,13.4,54.9c2.2,9,6,12.3,17.2,10.1l7.2-29.3c1.8-7.3,3.1-12.5,4.2-19.9h0.2
		c0.8,7.5,2,12.6,3.5,19.9c0,0,2.9,13.3,4.5,20.3c1.5,7,5.7,11.4,16.7,9l17.2-65h-13.9l-5.9,28.1c-1.6,8.1-3,14.6-4.1,22h-0.2
		c-1-7.4-2.3-13.5-3.9-21.5l-6.1-28.6h-14.5L95.6,221c-1.9,8.5-3.6,15.3-4.7,22.6h-0.2c-1.1-6.8-2.7-15.4-4.3-23.6
		c0,0-3.9-20-5.2-26.9"/>
	<path class="st0" d="M189.4,229c0-11.1-4.7-20.8-20.8-20.8c-8.2,0-14.7,2.3-18.3,4.4l2.6,8.9c3.2-2,8.4-3.7,13.4-3.7
		c8.1,0,9.4,4.6,9.4,7.5v0.7c-17.7,0-28.9,6.1-28.9,18.5c0,7.6,5.7,14.7,15.6,14.7c6.1,0,11.2-2.4,14.2-6.3h0.3c0,0,2,8.4,13.2,5.2
		c-0.6-3.5-0.8-7.3-0.8-11.8V229z M176.2,240.6c0,0.9-0.1,1.8-0.3,2.6c-1,3.4-4.5,6.3-8.9,6.3c-3.7,0-6.6-2.1-6.6-6.5
		c0-6.7,7.4-8.5,15.8-8.5"/>
	<polygon class="st0" points="196.6,193.1 196.6,258.1 209.8,258.1 209.8,244.3 209.8,193.1 	"/>
	<path class="st0" d="M378,193.1V241c0,6.6,1.2,11.2,3.9,14.1c2.3,2.5,6.2,4.1,10.8,4.1c3.9,0,7.8-0.8,9.6-1.4l-0.2-10.3
		c-1.4,0.3-2.9,0.6-5,0.6c-4.5,0-6-2.9-6-8.8v-18.4h11.5v-12.4h-11.5v-15.4"/>
	<path class="st0" d="M343.9,209.3v48.8h13.7v-25c0-1.3,0.1-2.5,0.3-3.6c1-5.3,5-8.6,10.8-8.6c1.6,0,2.7,0.2,3.9,0.4v-12.8
		c-1-0.2-1.7-0.3-3-0.3c-5.1,0-10.9,3.2-13.3,10.3h-0.3v-9.2"/>
	<path class="st0" d="M217.5,209.3v48.8h13.3v-28.7c0-1.3,0.1-2.7,0.6-4c1.1-2.9,3.8-6.3,8.1-6.3c5.4,0,7.9,4.5,7.9,11v27.8h13.3
		v-29c0-1.3,0.2-2.8,0.5-3.9c1.1-3.3,4-5.9,8-5.9c5.4,0,8,4.4,8,12.1v26.8h13.3v-28.8c0-15.1-7.7-21.1-16.4-21.1
		c-3.8,0-6.9,0.9-9.6,2.6c-2.3,1.4-4.4,3.4-6.2,6.1H258c-2.1-5.3-7-8.7-13.5-8.7c-8.3,0-12,4.2-14.2,7.7h-0.2v-6.6"/>
	<path class="st0" d="M474.1,207.1c2.6,0,4.8-1.4,5.1-3.1l2.6-29.3c0-2.9-3.4-5.3-7.7-5.3c-4.3,0-7.7,2.4-7.7,5.3L469,204
		C469.3,205.7,471.5,207.1,474.1,207.1"/>
	<path class="st0" d="M458.2,216.2c1.3-2.3,1.2-4.8-0.2-6l-24.2-16.9c-2.5-1.5-6.3,0.3-8.4,4c-2.1,3.7-1.7,7.8,0.7,9.3l26.7,12.4
		C454.6,219.7,456.9,218.5,458.2,216.2"/>
	<path class="st0" d="M489.9,216.2c1.4,2.3,3.6,3.5,5.3,2.9l26.7-12.4c2.5-1.5,2.9-5.6,0.8-9.3c-2.1-3.7-5.9-5.4-8.4-4l-24.2,16.9
		C488.8,211.4,488.7,214,489.9,216.2"/>
	<path class="st0" d="M474.1,243.7c2.6,0,4.8,1.4,5.1,3.1l2.6,29.3c0,2.9-3.4,5.3-7.7,5.3c-4.3,0-7.7-2.4-7.7-5.3l2.6-29.3
		C469.3,245,471.5,243.7,474.1,243.7"/>
	<path class="st0" d="M489.9,234.5c1.4-2.3,3.6-3.5,5.3-2.8l26.7,12.4c2.5,1.4,2.9,5.6,0.8,9.3c-2.1,3.7-5.9,5.4-8.4,4l-24.2-16.9
		C488.8,239.3,488.7,236.8,489.9,234.5"/>
	<path class="st0" d="M458.2,234.5c1.3,2.3,1.2,4.8-0.2,6l-24.2,16.9c-2.5,1.5-6.3-0.3-8.4-4c-2.1-3.7-1.7-7.8,0.7-9.3l26.7-12.4
		C454.6,231.1,456.9,232.3,458.2,234.5"/>
	<path class="st0" d="M529.8,254.8h0.3c0.5,0,0.6,0.1,0.7,0.5c0.1,0.4,0.1,0.7,0.2,0.8h0.9c-0.1-0.1-0.2-0.3-0.2-0.8
		c-0.1-0.4-0.3-0.7-0.6-0.8v-0.1c0.4-0.1,0.7-0.4,0.7-0.7c0-0.3-0.1-0.6-0.3-0.7c-0.3-0.1-0.6-0.2-1.2-0.2c-0.5,0-0.9,0-1.2,0.1v3.2
		h0.8V254.8z M529.8,253.3l0.4-0.1c0.5,0,0.7,0.2,0.7,0.5c0,0.3-0.3,0.5-0.8,0.5h-0.3V253.3z M530.3,251.1c-1.9,0-3.4,1.5-3.4,3.3
		c0,1.8,1.5,3.3,3.4,3.3c1.9,0,3.3-1.5,3.3-3.3C533.6,252.6,532.2,251.1,530.3,251.1 M530.3,251.8c1.4,0,2.5,1.2,2.5,2.6
		c0,1.4-1.1,2.7-2.5,2.6c-1.4,0-2.5-1.2-2.5-2.6C527.8,253,528.8,251.8,530.3,251.8"/>
</g>
</svg>
